<svg height="512pt" viewBox="0 0 512 512" width="512pt" xmlns="http://www.w3.org/2000/svg"><path d="m256 0c-141.363281 0-256 114.636719-256 256s114.636719 256 256 256 256-114.636719 256-256-114.636719-256-256-256zm33.027344 400.566406c-62.996094 1.085938-86.859375-44.875-86.859375-77.226562v-94.480469h-29.269531v-37.351563c43.875-15.820312 54.421874-55.390624 56.898437-77.933593.171875-1.550781 1.390625-2.160157 2.085937-2.160157h42.347657v73.664063h57.875v43.785156h-58.074219v90.019531c.1875 12.238282 4.679688 29.121094 27.832031 28.5 7.667969-.191406 17.949219-2.421874 23.328125-4.988281l13.90625 41.230469c-5.210937 7.683594-28.816406 16.578125-50.070312 16.941406zm0 0"/></svg>