<svg height="512pt" viewBox="0 0 512 512" width="512pt" xmlns="http://www.w3.org/2000/svg"><path d="m221.78125 263.222656h23.378906v-23.078125h21.671875v23.078125h23.378907v-23.078125h22.949218v-23.503906h-22.949218v-21.792969h22.949218v-23.503906h-22.949218v-23.078125h-23.375v23.078125h-21.675782v-23.078125h-23.378906v23.078125h-22.953125v23.503906h22.953125v21.792969h-22.953125v23.503906h22.953125zm23.378906-68.375h21.675782v21.792969h-21.675782zm0 0"/><path d="m360.136719 270.960938c-2.101563-1.390626-4.089844-2.078126-5.929688-2.292969-8.640625-.949219-13.9375 4.835937-18.140625 11.429687-4.640625 7.28125-31.433594 39.167969-79.976562 40.386719-48.539063-1.21875-75.324219-33.105469-79.972656-40.386719-4.203126-6.59375-9.316407-12.371094-18.140626-11.429687-1.839843.214843-3.828124.902343-5.929687 2.292969-3.777344 2.5-5.21875 6.742187-5.09375 9.703124 0 4.101563 2 7.90625 2 7.90625s30.859375 58.4375 104.125 58.4375c1.015625 0 2.019531-.011718 3.011719-.03125.996094.019532 2 .03125 3.011718.03125 73.269532 0 104.128907-58.4375 104.128907-58.4375s1.726562-2.496093 2.023437-7.910156c.132813-3.679687-1.339844-7.199218-5.117187-9.699218zm0 0"/><path d="m256 0c-141.363281 0-256 114.636719-256 256s114.636719 256 256 256 256-114.636719 256-256-114.636719-256-256-256zm141.90625 328.097656c0 34.386719-27.730469 62.261719-61.925781 62.261719h-53.785157l-26.46875 42.640625-26.46875-42.640625h-53.238281c-34.203125 0-61.925781-27.875-61.925781-62.261719v-160.835937c0-34.382813 27.722656-62.261719 61.925781-62.261719h159.960938c34.199219 0 61.925781 27.878906 61.925781 62.261719zm0 0"/></svg>