<svg height="512pt" viewBox="0 0 512 512" width="512pt" xmlns="http://www.w3.org/2000/svg"><path d="m256 0c-141.363281 0-256 114.636719-256 256s114.636719 256 256 256 256-114.636719 256-256-114.636719-256-256-256zm-56.292969 338.78125c-8.25 6.085938-19.867187 4.328125-25.953125-3.925781l-32.269531-43.777344-11.613281 11.097656v21.667969c0 10.25-8.308594 18.558594-18.558594 18.558594s-18.558594-8.308594-18.558594-18.558594v-145.6875c0-10.25 8.308594-18.5625 18.558594-18.5625s18.558594 8.3125 18.558594 18.5625v72.671875l37.347656-35.683594c7.410156-7.082031 19.160156-6.8125 26.242188.597657 7.082031 7.410156 6.8125 19.160156-.597657 26.242187l-24.324219 23.242187 35.09375 47.601563c6.085938 8.253906 4.328126 19.871094-3.925781 25.953125zm67.699219-14.9375c0 10.25-8.308594 18.558594-18.558594 18.558594s-18.5625-8.308594-18.5625-18.558594v-95.875c0-10.25 8.3125-18.558594 18.5625-18.558594s18.558594 8.308594 18.558594 18.558594zm132.363281 14.9375c-8.253906 6.085938-19.871093 4.328125-25.953125-3.925781l-32.273437-43.777344-11.609375 11.097656v21.667969c0 10.25-8.3125 18.558594-18.5625 18.558594s-18.558594-8.308594-18.558594-18.558594v-145.6875c0-10.25 8.308594-18.5625 18.558594-18.5625s18.5625 8.3125 18.5625 18.5625v72.675781l37.347656-35.6875c7.410156-7.082031 19.160156-6.8125 26.242188.597657 7.078124 7.410156 6.8125 19.160156-.597657 26.242187l-24.324219 23.242187 35.089844 47.601563c6.085938 8.253906 4.328125 19.871094-3.921875 25.953125zm38.230469-50.003906c-11.734375 0-21.246094-9.511719-21.246094-21.246094s9.511719-21.25 21.246094-21.25 21.246094 9.515625 21.246094 21.25-9.511719 21.246094-21.246094 21.246094zm0 0"/></svg>