<svg height="512pt" viewBox="0 0 512 512" width="512pt" xmlns="http://www.w3.org/2000/svg"><path d="m256 0c-141.363281 0-256 114.636719-256 256s114.636719 256 256 256 256-114.636719 256-256-114.636719-256-256-256zm0 457.675781c-111.382812 0-201.675781-90.292969-201.675781-201.675781s90.292969-201.675781 201.675781-201.675781 201.675781 90.292969 201.675781 201.675781-90.292969 201.675781-201.675781 201.675781zm0 0"/><path d="m256 71.265625c-102.027344 0-184.734375 82.707031-184.734375 184.734375s82.707031 184.734375 184.734375 184.734375 184.734375-82.707031 184.734375-184.734375-82.707031-184.734375-184.734375-184.734375zm91.148438 156.015625-.132813 95.984375-1.007813 3.578125c-3.421874 12.175781-11.78125 20.792969-23.621093 24.347656-8.367188 2.511719-20.59375 3.445313-26.601563 2.027344-5.34375-1.257812-9.21875-3.492188-13.457031-7.757812-6.167969-6.203126-8.902344-12.539063-8.914063-20.648438-.007812-4.535156.796876-7.953125 2.945313-12.507812 3.039063-6.441407 6.96875-10.320313 14.050781-13.859376 5.667969-2.832031 10.738282-4.300781 25.542969-7.394531 9.730469-2.035156 12.101563-2.90625 13.996094-5.160156 2.609375-3.097656 2.554687-1.949219 2.417969-51.0625-.113282-42.667969-.164063-45.015625-.9375-46.199219-1.152344-1.757812-3.550782-2.664062-6.085938-2.300781-2.691406.386719-98.441406 19.757813-100.828125 20.402344-2.65625.714843-4.574219 2.824219-5.191406 5.703125-.363281 1.699218-.507813 20.527344-.511719 66.886718-.003906 71.207032.054688 69.589844-2.792969 77.15625-.808593 2.160157-2.265625 5.136719-3.234375 6.613282-2.445312 3.730468-7.148437 8.273437-10.800781 10.4375-8.746094 5.171875-25.839844 7.832031-34.972656 5.441406-9.675781-2.535156-16.863281-9.121094-20.101563-18.417969-1.550781-4.453125-1.917968-11.78125-.828125-16.675781 1.140625-5.121094 3.777344-10.003906 7.335938-13.578125 6.269531-6.296875 13.675781-9.222656 33.628906-13.289063 4.304687-.875 8.75-1.894531 9.871094-2.265624 2.371093-.777344 4.941406-3.21875 6.101562-5.796876.761719-1.695312 1.253907-152.140624 1.253907-152.140624l1.046874-2.121094c1.234376-2.507813 3.835938-4.871094 6.464844-5.867188 1.695313-.640625 101.132813-20.910156 118-24.050781 3.816406-.710937 7.902344-1.292969 9.082032-1.292969 3.90625-.003906 6.777343 2.191406 7.894531 6.039063.390625 1.339843.484375 25.890625.386719 97.769531zm0 0"/></svg>